<svg width="50" height="54" viewBox="0 0 50 54" fill="none" xmlns="http://www.w3.org/2000/svg">
<path d="M9.24439 34.8772C9.56898 32.1898 10.6711 30.6853 12.7481 29.1429C15.72 27.054 19.4321 28.2355 19.4321 28.2355V21.2257C20.3347 21.2024 21.2376 21.256 22.13 21.3854V30.4066C22.13 30.4066 18.419 29.225 15.4473 31.315C13.3714 32.8563 12.2669 34.3621 11.9435 37.0494C11.9333 38.5087 12.2072 40.4161 13.4684 42.0654C13.1564 41.9055 12.8386 41.7234 12.5148 41.519C9.73688 39.6535 9.23087 36.855 9.24439 34.8772ZM37.458 8.26408C35.4137 6.02392 34.6405 3.76214 34.3611 2.17328H36.9328C36.9328 2.17328 36.42 6.3393 40.157 10.4362L40.2089 10.4913C39.2016 9.85776 38.278 9.10994 37.458 8.26408ZM49.8465 14.6152V23.4548C49.8465 23.4548 46.565 23.3265 44.1364 22.7086C40.7452 21.8444 38.5657 20.5191 38.5657 20.5191C38.5657 20.5191 37.0601 19.5741 36.9384 19.5082V37.7622C36.9384 38.7787 36.6601 41.3169 35.8114 43.4339C34.7036 46.2035 32.9941 48.0213 32.6796 48.3928C32.6796 48.3928 30.6004 50.8501 26.9321 52.505C23.6256 53.9977 20.7225 53.9599 19.8547 53.9977C19.8547 53.9977 14.8364 54.1964 10.3207 51.2617C9.34415 50.6147 8.43264 49.8822 7.5979 49.0732L7.62046 49.0894C12.1373 52.0241 17.1545 51.8254 17.1545 51.8254C18.0235 51.7876 20.9264 51.8254 24.2319 50.3327C27.8968 48.678 29.9794 46.2208 29.9794 46.2208C30.2905 45.8492 32.0079 44.0313 33.1112 41.2608C33.9576 39.1449 34.2381 36.6054 34.2381 35.5891V17.3372C34.3599 17.4041 35.8644 18.3491 35.8644 18.3491C35.8644 18.3491 38.0452 19.6756 41.4362 20.5386C43.8658 21.1565 47.1465 21.2851 47.1465 21.2851V14.3581C48.2689 14.6098 49.2257 14.6779 49.8465 14.6152Z" fill="#EE1D52"/>
<path d="M47.1484 14.3581V21.2828C47.1484 21.2828 43.8677 21.1542 41.4381 20.5365C38.0471 19.6723 35.8663 18.347 35.8663 18.347C35.8663 18.347 34.3617 17.402 34.24 17.3349V35.5912C34.24 36.6077 33.9617 39.1469 33.1131 41.2629C32.0053 44.0336 30.2957 45.8513 29.9813 46.2228C29.9813 46.2228 27.901 48.6801 24.2338 50.335C20.9283 51.8277 18.0254 51.7899 17.1564 51.8277C17.1564 51.8277 12.1392 52.0264 7.62232 49.0917L7.59979 49.0755C7.1229 48.6136 6.67402 48.1262 6.25533 47.6152C4.81393 45.8577 3.9304 43.7795 3.70838 43.1866V43.1791C3.35115 42.1487 2.60058 39.6741 2.70314 37.2773C2.88458 33.0486 4.37217 30.4531 4.76548 29.8028C5.80712 28.0297 7.16193 26.4431 8.76958 25.1141C10.1882 23.967 11.7962 23.0544 13.5276 22.4137C15.3993 21.6614 17.4036 21.2581 19.4329 21.2257V28.2355C19.4329 28.2355 15.7206 27.0583 12.75 29.1429C10.673 30.6853 9.57084 32.1898 9.24628 34.8772C9.23276 36.855 9.73877 39.6535 12.5144 41.52C12.8382 41.7252 13.156 41.9074 13.468 42.0665C13.9527 42.6968 14.543 43.2462 15.2147 43.6921C17.9261 45.4085 20.1981 45.5283 23.1035 44.4136C25.0407 43.6684 26.4989 41.9888 27.1751 40.1277C27.6001 38.9656 27.5945 37.7957 27.5945 36.5861V2.17328H34.3561C34.6357 3.76214 35.4087 6.02392 37.4531 8.26408C38.273 9.10994 39.1969 9.85776 40.204 10.4913C40.5016 10.7991 42.0229 12.321 43.9759 13.2553C44.9857 13.7383 46.0503 14.1083 47.1484 14.3581Z" fill="black"/>
<path d="M1.01636 41.0336V41.039L1.18413 41.4939C1.16486 41.4409 1.10251 41.28 1.01636 41.0336Z" fill="#69C9D0"/>
<path d="M13.5267 22.4135C11.7953 23.0544 10.1873 23.967 8.76867 25.1139C7.16052 26.446 5.80604 28.0359 4.7657 29.8123C4.37239 30.4606 2.88481 33.0582 2.70337 37.2868C2.60081 39.6836 3.35137 42.1583 3.70861 43.1886V43.1961C3.93399 43.7839 4.81416 45.8619 6.25555 47.6248C6.67424 48.1357 7.12313 48.6234 7.60002 49.0851C6.07208 48.0721 4.70938 46.8478 3.55647 45.4515C2.12747 43.7093 1.24619 41.6528 1.01629 41.0457C1.01602 41.0413 1.01602 41.0369 1.01629 41.0328V41.0251C0.657916 39.9958 -0.0948903 37.5201 0.00991197 35.1202C0.191353 30.8915 1.67896 28.296 2.07227 27.6457C3.1123 25.8689 4.46681 24.279 6.07523 22.9472C7.49359 21.7997 9.10166 20.8871 10.8333 20.2468C11.9134 19.8173 13.0386 19.5006 14.1894 19.3018C15.9237 19.0116 17.6951 18.9863 19.4376 19.2272V21.2255C17.4064 21.2572 15.4001 21.6606 13.5267 22.4135Z" fill="#69C9D0"/>
<path d="M34.3605 2.1732H27.5986V36.5871C27.5986 37.7967 27.5986 38.9633 27.1795 40.1287C26.4966 41.9888 25.0438 43.6682 23.1077 44.4136C20.2014 45.5327 17.9294 45.4085 15.219 43.6921C14.5461 43.2481 13.9544 42.7006 13.4678 42.0719C15.7769 43.2524 17.8437 43.2319 20.4041 42.247C22.3392 41.5016 23.7941 39.8219 24.4747 37.961C24.9007 36.7988 24.8951 35.629 24.8951 34.4202V0H34.2319C34.2319 0 34.1273 0.855449 34.3605 2.1732ZM47.147 12.443V14.3581C46.051 14.1079 44.9884 13.7378 43.9803 13.2553C42.0273 12.321 40.5058 10.7991 40.2083 10.4912C40.5535 10.7085 40.9118 10.9061 41.2811 11.0831C43.6556 12.2194 45.9941 12.5586 47.147 12.443Z" fill="#69C9D0"/>
</svg>
