<svg width="54" height="54" viewBox="0 0 54 54" fill="none" xmlns="http://www.w3.org/2000/svg">
<path d="M27 54C41.9117 54 54 41.9117 54 27C54 12.0883 41.9117 0 27 0C12.0883 0 0 12.0883 0 27C0 41.9117 12.0883 54 27 54Z" fill="white"/>
<path fill-rule="evenodd" clip-rule="evenodd" d="M19.9458 13.8833C19.9458 15.5641 18.666 16.9244 16.6646 16.9244C14.7411 16.9244 13.4612 15.5641 13.5009 13.8833C13.4612 12.1207 14.741 10.8 16.703 10.8C18.666 10.8 19.9075 12.1207 19.9458 13.8833ZM13.6618 38.9058V19.3269H19.7465V38.9044L13.6618 38.9058Z" fill="#257BB9"/>
<path fill-rule="evenodd" clip-rule="evenodd" d="M24.6231 25.5752C24.6231 23.1332 24.5426 21.0512 24.4622 19.3296H29.7474L30.0283 22.0117H30.1485C30.9493 20.7703 32.9507 18.8901 36.1937 18.8901C40.1965 18.8901 43.1993 21.5328 43.1993 27.2956V38.9083H37.1145V28.0581C37.1145 25.5344 36.2346 23.8139 34.0326 23.8139C32.3505 23.8139 31.3503 24.9749 30.9505 26.0951C30.7896 26.4962 30.7104 27.0556 30.7104 27.6175V38.9083H24.6255V25.5752H24.6231Z" fill="#257BB9"/>
</svg>
