<svg width="58" height="58" viewBox="0 0 58 58" fill="none" xmlns="http://www.w3.org/2000/svg">
<path d="M45.5714 0H12.4286C5.56446 0 0 5.56446 0 12.4286V45.5714C0 52.4355 5.56446 58 12.4286 58H45.5714C52.4355 58 58 52.4355 58 45.5714V12.4286C58 5.56446 52.4355 0 45.5714 0Z" fill="url(#paint0_radial_29_4084)"/>
<path d="M45.5714 0H12.4286C5.56446 0 0 5.56446 0 12.4286V45.5714C0 52.4355 5.56446 58 12.4286 58H45.5714C52.4355 58 58 52.4355 58 45.5714V12.4286C58 5.56446 52.4355 0 45.5714 0Z" fill="url(#paint1_radial_29_4084)"/>
<path d="M45.5714 0H12.4286C5.56446 0 0 5.56446 0 12.4286V45.5714C0 52.4355 5.56446 58 12.4286 58H45.5714C52.4355 58 58 52.4355 58 45.5714V12.4286C58 5.56446 52.4355 0 45.5714 0Z" fill="url(#paint2_radial_29_4084)"/>
<path d="M43.5001 17.6071C43.5001 19.3231 42.1089 20.7143 40.3929 20.7143C38.6769 20.7143 37.2858 19.3231 37.2858 17.6071C37.2858 15.8911 38.6769 14.5 40.3929 14.5C42.1089 14.5 43.5001 15.8911 43.5001 17.6071Z" fill="white"/>
<path fill-rule="evenodd" clip-rule="evenodd" d="M29 39.3572C34.72 39.3572 39.3571 34.7201 39.3571 29C39.3571 23.28 34.72 18.6429 29 18.6429C23.2799 18.6429 18.6428 23.28 18.6428 29C18.6428 34.7201 23.2799 39.3572 29 39.3572ZM29 35.2143C32.4321 35.2143 35.2143 32.4322 35.2143 29C35.2143 25.5679 32.4321 22.7857 29 22.7857C25.5678 22.7857 22.7857 25.5679 22.7857 29C22.7857 32.4322 25.5678 35.2143 29 35.2143Z" fill="white"/>
<path fill-rule="evenodd" clip-rule="evenodd" d="M8.28577 28.1714C8.28577 21.2108 8.28577 17.7304 9.6404 15.0718C10.832 12.7332 12.7333 10.8319 15.0719 9.64034C17.7304 8.28571 21.2109 8.28571 28.1715 8.28571H29.8286C36.7892 8.28571 40.2697 8.28571 42.9281 9.64034C45.2668 10.8319 47.1681 12.7332 48.3596 15.0718C49.7143 17.7304 49.7143 21.2108 49.7143 28.1714V29.8286C49.7143 36.7892 49.7143 40.2696 48.3596 42.9281C47.1681 45.2667 45.2668 47.1681 42.9281 48.3596C40.2697 49.7143 36.7892 49.7143 29.8286 49.7143H28.1715C21.2109 49.7143 17.7304 49.7143 15.0719 48.3596C12.7333 47.1681 10.832 45.2667 9.6404 42.9281C8.28577 40.2696 8.28577 36.7892 8.28577 29.8286V28.1714ZM28.1715 12.4286H29.8286C33.3774 12.4286 35.7896 12.4318 37.6543 12.5841C39.4707 12.7325 40.3995 13.0015 41.0475 13.3316C42.6064 14.126 43.8739 15.3936 44.6683 16.9526C44.9985 17.6005 45.2676 18.5293 45.4159 20.3458C45.5682 22.2105 45.5715 24.6226 45.5715 28.1714V29.8286C45.5715 33.3773 45.5682 35.7895 45.4159 37.6542C45.2676 39.4706 44.9985 40.3995 44.6683 41.0474C43.8739 42.6064 42.6064 43.8739 41.0475 44.6683C40.3995 44.9985 39.4707 45.2675 37.6543 45.4159C35.7896 45.5681 33.3774 45.5714 29.8286 45.5714H28.1715C24.6227 45.5714 22.2105 45.5681 20.3458 45.4159C18.5294 45.2675 17.6006 44.9985 16.9526 44.6683C15.3936 43.8739 14.1261 42.6064 13.3317 41.0474C13.0016 40.3995 12.7326 39.4706 12.5842 37.6542C12.4319 35.7895 12.4286 33.3773 12.4286 29.8286V28.1714C12.4286 24.6226 12.4319 22.2105 12.5842 20.3458C12.7326 18.5293 13.0016 17.6005 13.3317 16.9526C14.1261 15.3936 15.3936 14.126 16.9526 13.3316C17.6006 13.0015 18.5294 12.7325 20.3458 12.5841C22.2105 12.4318 24.6227 12.4286 28.1715 12.4286Z" fill="white"/>
<defs>
<radialGradient id="paint0_radial_29_4084" cx="0" cy="0" r="1" gradientUnits="userSpaceOnUse" gradientTransform="translate(20.7143 43.5) rotate(-55.3758) scale(52.862)">
<stop stop-color="#B13589"/>
<stop offset="0.79309" stop-color="#C62F94"/>
<stop offset="1" stop-color="#8A3AC8"/>
</radialGradient>
<radialGradient id="paint1_radial_29_4084" cx="0" cy="0" r="1" gradientUnits="userSpaceOnUse" gradientTransform="translate(18.6429 60.0714) rotate(-65.1363) scale(46.8023)">
<stop stop-color="#E0E8B7"/>
<stop offset="0.444662" stop-color="#FB8A2E"/>
<stop offset="0.71474" stop-color="#E2425C"/>
<stop offset="1" stop-color="#E2425C" stop-opacity="0"/>
</radialGradient>
<radialGradient id="paint2_radial_29_4084" cx="0" cy="0" r="1" gradientUnits="userSpaceOnUse" gradientTransform="translate(-3.10714 2.07143) rotate(-8.1301) scale(80.5597 17.2309)">
<stop offset="0.156701" stop-color="#406ADC"/>
<stop offset="0.467799" stop-color="#6A45BE"/>
<stop offset="1" stop-color="#6A45BE" stop-opacity="0"/>
</radialGradient>
</defs>
</svg>
