<svg width="52" height="52" viewBox="0 0 52 52" fill="none" xmlns="http://www.w3.org/2000/svg">
<path fill-rule="evenodd" clip-rule="evenodd" d="M25.9983 0C11.6415 0 0 11.9346 0 26.6601C0 38.4365 7.44899 48.4284 17.7824 51.954C19.0824 52.199 19.5569 51.3758 19.5569 50.6694C19.5569 50.0362 19.5341 48.3601 19.5211 46.1358C12.2882 47.747 10.7624 42.5619 10.7624 42.5619C9.58101 39.4829 7.87638 38.6631 7.87638 38.6631C5.51526 37.0086 8.05511 37.0419 8.05511 37.0419C10.6632 37.2302 12.0363 39.7894 12.0363 39.7894C14.3568 43.8632 18.122 42.6869 19.604 42.0037C19.8396 40.2809 20.5124 39.1063 21.255 38.4399C15.4814 37.7667 9.41199 35.4808 9.41199 25.2656C9.41199 22.3548 10.4244 19.9755 12.0884 18.1111C11.8203 17.4363 10.9281 14.7271 12.3419 11.0566C12.3419 11.0566 14.5259 10.3401 19.4919 13.7891C21.567 13.1976 23.79 12.9027 26.0017 12.891C28.21 12.9027 30.4346 13.1976 32.5114 13.7891C37.4741 10.3401 39.6533 11.0566 39.6533 11.0566C41.0719 14.7271 40.1797 17.4363 39.9116 18.1111C41.5789 19.9755 42.5848 22.3548 42.5848 25.2656C42.5848 35.5058 36.5056 37.76 30.7141 38.4198C31.6469 39.2429 32.4789 40.8691 32.4789 43.3567C32.4789 46.9206 32.4464 49.7946 32.4464 50.6694C32.4464 51.3825 32.9144 52.2122 34.2339 51.9507C44.5575 48.4184 52 38.4331 52 26.6601C52 11.9346 40.3585 0 25.9983 0Z" fill="white"/>
</svg>
