<svg width="40" height="40" viewBox="0 0 40 40" fill="none" xmlns="http://www.w3.org/2000/svg">
<circle cx="20" cy="20" r="20" fill="white"/>
<path d="M7.01653 10.5656C8.24959 21.466 17.534 30.7504 28.4344 31.9835C29.8561 32.1442 31.0923 31.1124 31.3729 29.7093L31.9414 26.8664C32.2069 25.5391 31.5512 24.1984 30.3405 23.593L28.4865 22.6661C27.2713 22.0585 25.7954 22.4068 24.9802 23.4938C24.4492 24.2017 23.5964 24.6334 22.7803 24.2912C19.9753 23.1155 15.8845 19.0246 14.7087 16.2197C14.3666 15.4036 14.7982 14.5508 15.5061 14.0198C16.5932 13.2046 16.9415 11.7287 16.3338 10.5135L15.4069 8.65946C14.8016 7.44878 13.4608 6.79306 12.1335 7.05852L9.29058 7.62711C7.88757 7.90771 6.8557 9.14391 7.01653 10.5656Z" stroke="#257BB9" stroke-width="2.5" stroke-linecap="round" stroke-linejoin="round"/>
</svg>
